<svg width="195" height="88" viewBox="0 0 195 88" fill="none" xmlns="http://www.w3.org/2000/svg">
<path fill-rule="evenodd" clip-rule="evenodd" d="M115.553 59.8976C106.85 66.221 94.2365 69.5948 83.3762 69.5948C68.1484 69.5948 54.4394 64.0425 44.0681 54.8079C43.2532 54.0818 43.9833 53.0921 44.9611 53.6576C56.1539 60.0775 69.9932 63.9397 84.2889 63.9397C93.9301 63.9397 104.536 61.9732 114.288 57.8926C115.761 57.2756 116.994 58.8436 115.553 59.8976Z" fill="white"/>
<path fill-rule="evenodd" clip-rule="evenodd" d="M119.483 55.7653C118.328 54.317 111.818 55.081 108.895 55.4198C108.005 55.5261 107.869 54.7687 108.671 54.2239C113.856 50.6563 122.365 51.686 123.357 52.8819C124.349 54.0844 123.099 62.4223 118.226 66.4019C117.479 67.0131 116.765 66.6876 117.098 65.877C118.192 63.2063 120.645 57.2203 119.483 55.7653Z" fill="white"/>
<path fill-rule="evenodd" clip-rule="evenodd" d="M109.041 29.5449V26.1625C109.041 25.6506 109.447 25.3071 109.934 25.3071H125.738C126.245 25.3071 126.651 25.657 126.651 26.1625V29.0589C126.644 29.5449 126.218 30.1799 125.46 31.1843L117.271 42.3879C120.314 42.3167 123.526 42.7508 126.285 44.2412C126.907 44.5781 127.077 45.0706 127.124 45.5566V49.1658C127.124 49.6583 126.556 50.235 125.961 49.9369C121.099 47.494 114.64 47.2283 109.264 49.9628C108.716 50.2479 108.142 49.6777 108.142 49.1853V45.7574C108.142 45.2066 108.148 44.2671 108.723 43.4312L118.211 30.3938H109.954C109.447 30.3938 109.041 30.0504 109.041 29.5449Z" fill="white"/>
<path fill-rule="evenodd" clip-rule="evenodd" d="M53.7541 50.6143H49.1423C48.7013 50.5825 48.351 50.2581 48.3186 49.8445V26.6304C48.3186 26.166 48.7142 25.797 49.2072 25.797H53.5076C53.9551 25.8161 54.3119 26.1532 54.3443 26.5731V29.6077H54.4286C55.5508 26.6749 57.6588 25.3071 60.4998 25.3071C63.3862 25.3071 65.1894 26.6749 66.4866 29.6077C67.6023 26.6749 70.1384 25.3071 72.8561 25.3071C74.7891 25.3071 76.9036 26.0896 78.1943 27.8455C79.6538 29.7986 79.3554 32.6359 79.3554 35.1234L79.3489 49.7746C79.3489 50.239 78.9532 50.6143 78.4603 50.6143H73.855C73.3945 50.5825 73.0248 50.2199 73.0248 49.7746V37.4709C73.0248 36.4912 73.1156 34.0482 72.8951 33.1194C72.5513 31.5608 71.52 31.1218 70.1838 31.1218C69.0682 31.1218 67.9006 31.8534 67.4271 33.024C66.9536 34.1945 66.999 36.154 66.999 37.4709V49.7746C66.999 50.239 66.6034 50.6143 66.1104 50.6143H61.5052C61.0382 50.5825 60.6749 50.2199 60.6749 49.7746L60.6684 37.4709C60.6684 34.8816 61.103 31.0709 57.8275 31.0709C54.513 31.0709 54.6427 34.7862 54.6427 37.4709V49.7746C54.6427 50.239 54.247 50.6143 53.7541 50.6143" fill="white"/>
<path fill-rule="evenodd" clip-rule="evenodd" d="M139.405 25.3071C146.366 25.3071 150.133 31.2199 150.133 38.7382C150.133 46.002 145.97 51.7647 139.405 51.7647C132.57 51.7647 128.85 45.8518 128.85 38.4837C128.85 31.0698 132.617 25.3071 139.405 25.3071ZM139.445 30.1692C135.988 30.1692 135.77 34.829 135.77 37.7332C135.77 40.6439 135.724 46.8569 139.405 46.8569C143.041 46.8569 143.212 41.8447 143.212 38.7904C143.212 36.7803 143.126 34.3787 142.513 32.473C141.985 30.8153 140.936 30.1692 139.445 30.1692Z" fill="white"/>
<path fill-rule="evenodd" clip-rule="evenodd" d="M158.613 50.6143H153.873C153.397 50.5825 153.016 50.2199 153.016 49.7746L153.009 26.554C153.049 26.1278 153.444 25.797 153.926 25.797H158.338C158.754 25.8161 159.095 26.0833 159.189 26.4459V29.9958H159.276C160.608 26.8212 162.476 25.3071 165.764 25.3071C167.9 25.3071 169.982 26.0387 171.321 28.0427C172.566 29.9003 172.566 33.024 172.566 35.2697V49.8827C172.513 50.2899 172.118 50.6143 171.649 50.6143H166.875C166.44 50.5825 166.078 50.2771 166.032 49.8827V37.2737C166.032 34.7353 166.34 31.02 163.052 31.02C161.894 31.02 160.829 31.758 160.3 32.8777C159.631 34.2963 159.544 35.7087 159.544 37.2737V49.7746C159.537 50.239 159.122 50.6143 158.613 50.6143" fill="white"/>
<path fill-rule="evenodd" clip-rule="evenodd" d="M97.2376 39.5139C97.2376 41.3177 97.2838 42.8219 96.3596 44.4238C95.6136 45.7262 94.4253 46.5271 93.1115 46.5271C91.3093 46.5271 90.253 45.1727 90.253 43.1735C90.253 39.2274 93.8377 38.5111 97.2376 38.5111V39.5139ZM101.971 50.7989C101.661 51.0724 101.212 51.0919 100.862 50.9096C99.3039 49.6333 99.02 49.0407 98.1684 47.823C95.5938 50.4147 93.7651 51.1896 90.4313 51.1896C86.4768 51.1896 83.4071 48.7867 83.4071 43.9745C83.4071 40.2172 85.4668 37.658 88.4111 36.4078C90.9594 35.3007 94.5177 35.1054 97.2376 34.7993V34.2002C97.2376 33.0997 97.3234 31.7974 96.6632 30.8467C96.0955 29.9936 94.9996 29.642 94.0292 29.642C92.2401 29.642 90.6491 30.5471 90.2596 32.4225C90.1804 32.8393 89.8701 33.2495 89.441 33.2691L84.8924 32.7872C84.5096 32.7025 84.0804 32.3965 84.1927 31.8169C85.2357 26.373 90.2266 24.7321 94.6893 24.7321C96.9735 24.7321 99.9575 25.3311 101.76 27.0372C104.044 29.1406 103.826 31.9472 103.826 35.0012V42.2163C103.826 44.3847 104.737 45.3355 105.595 46.5076C105.892 46.9243 105.958 47.4257 105.575 47.7383C104.618 48.5262 102.915 49.9914 101.978 50.8119L101.971 50.7988" fill="white"/>
<path fill-rule="evenodd" clip-rule="evenodd" d="M35.906 39.5139C35.906 41.3177 35.951 42.8219 35.0507 44.4238C34.324 45.7262 33.1729 46.5271 31.8868 46.5271C30.1312 46.5271 29.1087 45.1727 29.1087 43.1735C29.1087 39.2274 32.6006 38.5111 35.906 38.5111V39.5139ZM40.5168 50.7989C40.2146 51.0724 39.7773 51.0919 39.4365 50.9096C37.9188 49.6333 37.6487 49.0407 36.8127 47.823C34.3047 50.4147 32.5299 51.1896 29.2759 51.1896C25.4303 51.1896 22.4336 48.7867 22.4336 43.9745C22.4336 40.2172 24.4464 37.658 27.3081 36.4078C29.7904 35.3007 33.2565 35.1054 35.906 34.7993V34.2002C35.906 33.0997 35.9896 31.7974 35.353 30.8467C34.7935 29.9936 33.726 29.642 32.7871 29.642C31.0444 29.642 29.4881 30.5471 29.1087 32.4225C29.0315 32.8393 28.7293 33.2495 28.3177 33.2691L23.8805 32.7872C23.5076 32.7025 23.096 32.3965 23.1989 31.8169C24.2214 26.373 29.0766 24.7321 33.4237 24.7321C35.6488 24.7321 38.5555 25.3311 40.311 27.0372C42.5361 29.1406 42.3239 31.9472 42.3239 35.0012V42.2163C42.3239 44.3847 43.2113 45.3355 44.0473 46.5076C44.3431 46.9243 44.4074 47.4257 44.0344 47.7383C43.102 48.5262 41.4428 49.9914 40.5297 50.8119L40.5168 50.7988" fill="white"/>
</svg>
