<svg xmlns="http://www.w3.org/2000/svg" viewBox="0 0 231.64 100.72">
  <path d="M99.16,39.86H91.49a6.16,6.16,0,0,0-.41-1.39,4.16,4.16,0,0,0-1.23-1.6,3.93,3.93,0,0,0-2.49-.77,4.13,4.13,0,0,0-2.91,1.06,5.65,5.65,0,0,0-1.52,2.62,12.69,12.69,0,0,0,0,6.7,5.65,5.65,0,0,0,1.52,2.62,4.18,4.18,0,0,0,2.91,1.06,3.59,3.59,0,0,0,2.9-1.23,6.62,6.62,0,0,0,1.26-3h7.75A10.29,10.29,0,0,1,97.9,51a10.71,10.71,0,0,1-4,4,12.49,12.49,0,0,1-6.36,1.61,13.56,13.56,0,0,1-7-1.79A11.61,11.61,0,0,1,76.12,50a15.16,15.16,0,0,1-1.53-6.84,15.17,15.17,0,0,1,1.61-7.07,11.48,11.48,0,0,1,4.5-4.66,13.83,13.83,0,0,1,6.88-1.69c3.51,0,6.24.94,8.17,2.69a11.25,11.25,0,0,1,3.41,7.46Z"/>
  <path d="M113.79,49.26V47.54a11.9,11.9,0,0,1-2.8.9,4.69,4.69,0,0,0-1.79.67,1.51,1.51,0,0,0-.61,1.34,1.55,1.55,0,0,0,.63,1.18,2.52,2.52,0,0,0,1.59.54,3,3,0,0,0,2.06-.73,3.09,3.09,0,0,0,.92-2.18Zm6.81-5.16v7.64a14.42,14.42,0,0,0,.14,2.16,4.83,4.83,0,0,0,.73,2h-7.25A5,5,0,0,1,114,55a4.52,4.52,0,0,1,0-.88h-.07a6.1,6.1,0,0,1-2.7,1.76,10.48,10.48,0,0,1-3.29.47,8.93,8.93,0,0,1-3.3-.59,5.23,5.23,0,0,1-2.36-1.85,5.52,5.52,0,0,1-.91-3.19,5,5,0,0,1,1.14-3.38,6.39,6.39,0,0,1,2.76-1.75,18.85,18.85,0,0,1,3.44-.77c1.18-.15,2.24-.3,3.17-.45a3.8,3.8,0,0,0,1.33-.45,1.33,1.33,0,0,0,.61-1.2,1.48,1.48,0,0,0-.74-1.33,3,3,0,0,0-1.59-.39,2.93,2.93,0,0,0-2.14.65,1.85,1.85,0,0,0-.52,1.25h-6.6A5.54,5.54,0,0,1,103.8,39a7.46,7.46,0,0,1,3.59-1.77,19.94,19.94,0,0,1,4.39-.42,17,17,0,0,1,5.13.63,5.37,5.37,0,0,1,2.62,1.66,4.91,4.91,0,0,1,1,2.34,16.53,16.53,0,0,1,.12,2.65Z"/>
  <path d="M132.87,31.65v5.67h3.8v4.37h-3.8v6.5a3,3,0,0,0,.42,1.88,2.11,2.11,0,0,0,1.77.59,12.56,12.56,0,0,0,1.61-.11v5.38c-.72,0-1.47,0-2.25.11s-1.55.1-2.31.11a11.79,11.79,0,0,1-3-.31,4.24,4.24,0,0,1-2.39-1.55,6,6,0,0,1-1-3.7v-8.9h-3.16V37.32h3.16V31.65Z"/>
  <path d="M137.46,47.31h7.89a4.69,4.69,0,0,0,.28,1.68,2.57,2.57,0,0,0,1.55,1.51,6,6,0,0,0,2.22.36,6.07,6.07,0,0,0,1.42-.18,2.91,2.91,0,0,0,1.28-.7,2,2,0,0,0,.56-1.45c.05-.63-.32-1.13-1.1-1.5a30.21,30.21,0,0,0-4.42-1.45,37.36,37.36,0,0,1-4-1.28,8.49,8.49,0,0,1-3.28-2.17,5.82,5.82,0,0,1-1.35-4A7.74,7.74,0,0,1,140,33.34a8.51,8.51,0,0,1,3.8-2.76,13.63,13.63,0,0,1,5-.88,15.44,15.44,0,0,1,5.19.78,8.21,8.21,0,0,1,3.87,2.63,8.3,8.3,0,0,1,1.63,4.94H152a2,2,0,0,0-.17-1.22,2.09,2.09,0,0,0-.77-.82,3.29,3.29,0,0,0-1.11-.5,5.09,5.09,0,0,0-1.22-.15,6,6,0,0,0-1.21.13,2.62,2.62,0,0,0-1.12.51,1.33,1.33,0,0,0-.5,1.08,1.85,1.85,0,0,0,1.18,1.43,14,14,0,0,0,2.74.93c1.11.26,2.27.55,3.5.87a16.9,16.9,0,0,1,3.48,1.32,7.32,7.32,0,0,1,2.67,2.29,6.53,6.53,0,0,1,1.06,3.78,7.78,7.78,0,0,1-1.8,5.25,9.51,9.51,0,0,1-4.43,2.77,18.33,18.33,0,0,1-5.6.8,16,16,0,0,1-3-.29A13.38,13.38,0,0,1,142,55a8.44,8.44,0,0,1-3.18-2.78,8.73,8.73,0,0,1-1.38-4.89Z"/>
  <path d="M174.22,49.26V47.54a11.9,11.9,0,0,1-2.8.9,4.75,4.75,0,0,0-1.79.67,1.53,1.53,0,0,0-.61,1.34,1.55,1.55,0,0,0,.63,1.18,2.52,2.52,0,0,0,1.59.54,3,3,0,0,0,2.06-.73,3.09,3.09,0,0,0,.92-2.18ZM181,44.1v7.64a13.18,13.18,0,0,0,.13,2.16,5,5,0,0,0,.73,2h-7.25a4.23,4.23,0,0,1-.2-.88,3.9,3.9,0,0,1,0-.88h-.07a6.1,6.1,0,0,1-2.7,1.76,10.44,10.44,0,0,1-3.29.47,8.93,8.93,0,0,1-3.3-.59,5.28,5.28,0,0,1-2.36-1.85,5.45,5.45,0,0,1-.9-3.19,4.93,4.93,0,0,1,1.13-3.38,6.39,6.39,0,0,1,2.76-1.75,19,19,0,0,1,3.44-.77c1.19-.15,2.24-.3,3.17-.45a3.92,3.92,0,0,0,1.34-.45,1.35,1.35,0,0,0,.6-1.2,1.47,1.47,0,0,0-.73-1.33,3,3,0,0,0-1.6-.39,2.89,2.89,0,0,0-2.13.65,1.81,1.81,0,0,0-.52,1.25h-6.6A5.49,5.49,0,0,1,164.23,39a7.51,7.51,0,0,1,3.59-1.77,19.94,19.94,0,0,1,4.39-.42,17,17,0,0,1,5.13.63A5.37,5.37,0,0,1,180,39.11a4.91,4.91,0,0,1,.95,2.34A17.76,17.76,0,0,1,181,44.1Z"/>
  <polygon points="184.91 55.93 184.91 30.32 192.01 30.32 192.01 55.93 184.91 55.93 184.91 55.93"/>
  <path d="M215.43,37.32V55.93h-6.85V53.57h-.08A6.32,6.32,0,0,1,206,55.68a8.19,8.19,0,0,1-3.6.72,7.14,7.14,0,0,1-3.13-.69A5.61,5.61,0,0,1,197,53.62a6.67,6.67,0,0,1-.91-3.53V37.32h7.1v9.75a6.23,6.23,0,0,0,.39,2.64,1.93,1.93,0,0,0,1.94,1,2.68,2.68,0,0,0,1.88-.68,3.84,3.84,0,0,0,1-2.9V37.32Z"/>
  <path d="M227.84,31.65v5.67h3.8v4.37h-3.8v6.5a3,3,0,0,0,.42,1.88,2.11,2.11,0,0,0,1.77.59,12.56,12.56,0,0,0,1.61-.11v5.38c-.72,0-1.47,0-2.25.11s-1.55.1-2.3.11a11.82,11.82,0,0,1-3-.31,4.24,4.24,0,0,1-2.39-1.55,6,6,0,0,1-1-3.7v-8.9h-3.16V37.32h3.16V31.65Z"/>
  <polygon points="22.36 0 11.18 0 11.18 11.18 22.36 11.18 22.36 0 22.36 0"/>
  <polygon points="11.18 11.17 0 11.17 0 22.35 11.18 22.35 11.18 11.17 11.18 11.17"/>
  <path d="M45,28.14a7.18,7.18,0,0,0-3.37-.72c-2.87,0-4.14.83-4.14,2.26,0,4.31,11.92,3.58,18.54,8.28V30.84H46.9A3.51,3.51,0,0,0,45,28.14Z"/>
  <path d="M22.36,11.17V22.35H11.18V56H29a12.53,12.53,0,0,1-4.87-9.25H36.63a4.57,4.57,0,0,0,2.15,3.15,7.17,7.17,0,0,0,3.7,1c3.26,0,5.41-1,5.41-2.93C47.89,42,25,46.13,25,31c0-8.44,7.29-12.69,17.22-12.69,6.62,0,11.08,2,13.79,5.15V11.17Z"/>
  <path d="M81.18,96.42a4.15,4.15,0,0,0-.33-1.67,2.85,2.85,0,0,0-.92-1.2,2.41,2.41,0,0,0-1.44-.47,2.54,2.54,0,0,0-1.57.5,2.75,2.75,0,0,0-.9,1.29,4.83,4.83,0,0,0-.25,1.83A3.38,3.38,0,0,0,76.55,99a2.6,2.6,0,0,0,1.94.81A2.45,2.45,0,0,0,80,99.36a2.74,2.74,0,0,0,.91-1.21,4.68,4.68,0,0,0,.31-1.73Zm0-2.68V89.36h.92v11.07h-.92V99h0a2.86,2.86,0,0,1-1.21,1.2,3.32,3.32,0,0,1-1.56.42,3.62,3.62,0,0,1-2.07-.57,3.08,3.08,0,0,1-1.16-1.49,5.46,5.46,0,0,1-.36-2.12,5.29,5.29,0,0,1,.38-2.09,3.43,3.43,0,0,1,1.17-1.53,3.32,3.32,0,0,1,2-.6,3.65,3.65,0,0,1,1.62.39,3,3,0,0,1,1.22,1.1Z"/>
  <path d="M85,95.9h5.19a3.1,3.1,0,0,0-.63-2,2.37,2.37,0,0,0-1.89-.83,2.41,2.41,0,0,0-1.37.4,2.6,2.6,0,0,0-.89,1A4.22,4.22,0,0,0,85,95.9Zm6.18.76H85a3.89,3.89,0,0,0,.29,1.59,2.49,2.49,0,0,0,2.38,1.57,2.67,2.67,0,0,0,1.56-.48A2.39,2.39,0,0,0,90.08,98h1A4,4,0,0,1,90,99.88a3.39,3.39,0,0,1-2.31.77,3.76,3.76,0,0,1-2.08-.56,3.21,3.21,0,0,1-1.19-1.48A5.54,5.54,0,0,1,84,96.48a5.27,5.27,0,0,1,.45-2.13,3.73,3.73,0,0,1,1.25-1.52,3.51,3.51,0,0,1,2-.58,3.19,3.19,0,0,1,2.58,1.14,5.08,5.08,0,0,1,.93,3.27Z"/>
  <polygon points="98.28 100.43 97.36 100.43 97.36 89.36 98.28 89.36 98.28 100.43 98.28 100.43"/>
  <path d="M105.86,97.48V96.23a5.26,5.26,0,0,1-1.19.32c-.4.06-.8.1-1.2.13a3.29,3.29,0,0,0-1.64.48,1.41,1.41,0,0,0-.6,1.21,1.33,1.33,0,0,0,.53,1.08,2.08,2.08,0,0,0,1.19.35,3.78,3.78,0,0,0,1.4-.25,2.45,2.45,0,0,0,1.08-.75,2.11,2.11,0,0,0,.43-1.32ZM103,95.94l1.27-.17.62-.09a2.55,2.55,0,0,0,.6-.17.54.54,0,0,0,.28-.36,2,2,0,0,0,.06-.47,1.53,1.53,0,0,0-.46-1.16,2.2,2.2,0,0,0-1.53-.45,2.62,2.62,0,0,0-1.57.38,1.84,1.84,0,0,0-.75,1.41h-.93a2.55,2.55,0,0,1,1-2,3.84,3.84,0,0,1,2.24-.62,3.4,3.4,0,0,1,2,.55,2.26,2.26,0,0,1,.84,1.93V99c0,.36,0,.59.19.69s.39.07.78-.07v.72l-.32.1a2.76,2.76,0,0,1-.4.06,1.86,1.86,0,0,1-.42-.05.74.74,0,0,1-.59-.42,1.84,1.84,0,0,1-.15-.76,3.78,3.78,0,0,1-1.34,1,4,4,0,0,1-1.62.34,3.47,3.47,0,0,1-1.31-.25,2.18,2.18,0,0,1-1-.77,2.08,2.08,0,0,1-.38-1.27c0-1.35.92-2.15,2.78-2.4Z"/>
  <path d="M113,97.13h1a2.77,2.77,0,0,0,1,2.09,3.51,3.51,0,0,0,2.16.61,3.09,3.09,0,0,0,2.15-.69,2.1,2.1,0,0,0,.66-1.6,1.72,1.72,0,0,0-.7-1.47,4.8,4.8,0,0,0-1.67-.69c-.67-.16-1.33-.33-2-.51A4,4,0,0,1,114,94a2.59,2.59,0,0,1-.71-1.91,2.67,2.67,0,0,1,.43-1.45A3.05,3.05,0,0,1,115,89.5a4.73,4.73,0,0,1,2.07-.43,4.44,4.44,0,0,1,2.08.46,3,3,0,0,1,1.24,1.19,3.32,3.32,0,0,1,.4,1.66h-1a2.35,2.35,0,0,0-.4-1.38,2.2,2.2,0,0,0-1-.79,3.82,3.82,0,0,0-3,.13,2,2,0,0,0-.87.93,2,2,0,0,0-.15,1.14,1.68,1.68,0,0,0,.88,1.21,6.06,6.06,0,0,0,1.7.58c.65.13,1.3.29,1.93.47a3.71,3.71,0,0,1,1.58.92,2.71,2.71,0,0,1,.66,1.9A2.91,2.91,0,0,1,120,99.87a4.72,4.72,0,0,1-3,.85,5,5,0,0,1-2.06-.4,3.14,3.14,0,0,1-1.42-1.2,3.7,3.7,0,0,1-.53-2Z"/>
  <path d="M128.06,97.48V96.23a5,5,0,0,1-1.18.32c-.4.06-.8.1-1.2.13a3.36,3.36,0,0,0-1.65.48,1.37,1.37,0,0,0-.59,1.21,1.27,1.27,0,0,0,.53,1.08,2.06,2.06,0,0,0,1.19.35,3.86,3.86,0,0,0,1.4-.25,2.37,2.37,0,0,0,1.07-.75,2.11,2.11,0,0,0,.43-1.32Zm-2.83-1.54,1.28-.17.62-.09a2.87,2.87,0,0,0,.6-.17.57.57,0,0,0,.28-.36,1.57,1.57,0,0,0,.05-.47,1.49,1.49,0,0,0-.45-1.16,2.2,2.2,0,0,0-1.53-.45,2.67,2.67,0,0,0-1.58.38,1.87,1.87,0,0,0-.74,1.41h-.94a2.58,2.58,0,0,1,1-2,3.81,3.81,0,0,1,2.24-.62,3.42,3.42,0,0,1,2.05.55,2.26,2.26,0,0,1,.84,1.93V99c0,.36,0,.59.19.69s.39.07.77-.07v.72l-.31.1a2.9,2.9,0,0,1-.41.06,1.84,1.84,0,0,1-.41-.05.77.77,0,0,1-.6-.42,2,2,0,0,1-.14-.76,4,4,0,0,1-1.34,1,4.07,4.07,0,0,1-1.63.34,3.51,3.51,0,0,1-1.31-.25,2.3,2.3,0,0,1-1-.77,2.22,2.22,0,0,1-.38-1.27c0-1.35.93-2.15,2.78-2.4Z"/>
  <polygon points="132.44 100.43 131.52 100.43 131.52 89.36 132.44 89.36 132.44 100.43 132.44 100.43"/>
  <path d="M140.21,96.8V92.47h.92v8h-.92V99.32a4.51,4.51,0,0,1-1,.87,2.88,2.88,0,0,1-1.62.46,2.7,2.7,0,0,1-2.21-.85,3.19,3.19,0,0,1-.62-2.09V92.47h.92V97.7a2.3,2.3,0,0,0,.48,1.57,2.07,2.07,0,0,0,1.57.55,2.19,2.19,0,0,0,1.78-.85,3.48,3.48,0,0,0,.65-2.17Z"/>
  <path d="M146.13,99.71v.75l-.44.11a2.91,2.91,0,0,1-.62.08,1.43,1.43,0,0,1-1-.35,1.72,1.72,0,0,1-.36-1.24V93.24h-1.13v-.77h1.13V90.26h.92v2.21h1.49v.77h-1.49v5.45a1.82,1.82,0,0,0,.11.86q.13.27.69.27a3.88,3.88,0,0,0,.75-.11Z"/>
  <path d="M74.58,81.75h1a2.83,2.83,0,0,0,1,2.1,3.49,3.49,0,0,0,2.16.61,3.09,3.09,0,0,0,2.15-.69,2.1,2.1,0,0,0,.66-1.6,1.72,1.72,0,0,0-.7-1.47,5,5,0,0,0-1.68-.7c-.66-.15-1.33-.32-2-.5a4,4,0,0,1-1.68-.92,2.58,2.58,0,0,1-.7-1.91,2.72,2.72,0,0,1,.42-1.46,3.06,3.06,0,0,1,1.26-1.08,4.73,4.73,0,0,1,2.07-.43,4.47,4.47,0,0,1,2.08.46,3,3,0,0,1,1.24,1.19,3.3,3.3,0,0,1,.4,1.65h-1a2.25,2.25,0,0,0-.39-1.37,2.2,2.2,0,0,0-1-.79,3.82,3.82,0,0,0-3,.13,2,2,0,0,0-.87.93A1.88,1.88,0,0,0,75.89,77a1.66,1.66,0,0,0,.88,1.21,6.4,6.4,0,0,0,1.7.58c.65.13,1.29.29,1.93.47a3.71,3.71,0,0,1,1.58.92,2.71,2.71,0,0,1,.66,1.9,2.91,2.91,0,0,1-1.07,2.38,4.72,4.72,0,0,1-3,.85,5,5,0,0,1-2.06-.4,3.09,3.09,0,0,1-1.42-1.2,3.65,3.65,0,0,1-.53-2Z"/>
  <path d="M85,80.52h5.19a3.09,3.09,0,0,0-.63-2,2.37,2.37,0,0,0-1.89-.83,2.41,2.41,0,0,0-1.37.4,2.6,2.6,0,0,0-.89,1A4.23,4.23,0,0,0,85,80.52Zm6.18.77H85a3.92,3.92,0,0,0,.29,1.59,2.58,2.58,0,0,0,.9,1.13,2.51,2.51,0,0,0,1.48.43A2.6,2.6,0,0,0,89.22,84a2.39,2.39,0,0,0,.86-1.35h1A4,4,0,0,1,90,84.51a3.39,3.39,0,0,1-2.31.77,3.76,3.76,0,0,1-2.08-.56,3.19,3.19,0,0,1-1.19-1.49A5.45,5.45,0,0,1,84,81.11,5.27,5.27,0,0,1,84.45,79a3.73,3.73,0,0,1,1.25-1.52,3.43,3.43,0,0,1,2-.58A3.19,3.19,0,0,1,90.24,78a5.08,5.08,0,0,1,.93,3.27Z"/>
  <path d="M93.91,81.14v3.91H93v-8h.92v1.5h0a2.63,2.63,0,0,1,1-1.34,3,3,0,0,1,1.61-.37v1a2.54,2.54,0,0,0-1.6.43,2.4,2.4,0,0,0-.81,1.19,5.73,5.73,0,0,0-.22,1.65Z"/>
  <polygon points="100.27 85.06 97.23 77.1 98.23 77.1 100.81 83.92 103.39 77.1 104.39 77.1 101.3 85.06 100.27 85.06 100.27 85.06"/>
  <path d="M106.33,80.52h5.2a3,3,0,0,0-.64-2,2.34,2.34,0,0,0-1.88-.83,2.47,2.47,0,0,0-1.38.4,2.58,2.58,0,0,0-.88,1,4,4,0,0,0-.42,1.39Zm6.18.77h-6.18a4.09,4.09,0,0,0,.3,1.59,2.58,2.58,0,0,0,.9,1.13,2.49,2.49,0,0,0,1.48.43,2.57,2.57,0,0,0,1.55-.47,2.29,2.29,0,0,0,.86-1.35h1a3.94,3.94,0,0,1-1.13,1.89,3.43,3.43,0,0,1-2.31.77,3.76,3.76,0,0,1-2.08-.56,3.27,3.27,0,0,1-1.2-1.49,5.64,5.64,0,0,1-.38-2.12,5.1,5.1,0,0,1,.44-2.13,3.76,3.76,0,0,1,1.26-1.52,3.41,3.41,0,0,1,2-.58A3.2,3.2,0,0,1,111.59,78a5.08,5.08,0,0,1,.92,3.27Z"/>
  <path d="M115.35,85.06h-.92v-8h.92v8Zm.05-9.7h-1V74h1v1.37Z"/>
  <path d="M131.06,77.2H130a3.26,3.26,0,0,0-1.2-2,3.83,3.83,0,0,0-2.29-.6,3.44,3.44,0,0,0-2.18.69,3.9,3.9,0,0,0-1.25,1.78,7.06,7.06,0,0,0-.4,2.44,7.45,7.45,0,0,0,.35,2.38,3.79,3.79,0,0,0,1.22,1.84,3.65,3.65,0,0,0,2.35.74,3.35,3.35,0,0,0,2.31-.86,4.28,4.28,0,0,0,1.2-2.18h1.09a6,6,0,0,1-.81,2,4.14,4.14,0,0,1-1.54,1.42,5.25,5.25,0,0,1-2.45.54,4.51,4.51,0,0,1-2.75-.81,4.6,4.6,0,0,1-1.54-2.11,8.17,8.17,0,0,1-.47-2.9,7.39,7.39,0,0,1,.68-3.39,4.1,4.1,0,0,1,1.83-1.87,5.62,5.62,0,0,1,2.63-.57,4.53,4.53,0,0,1,2.87.89,4,4,0,0,1,1.42,2.62Z"/>
  <path d="M138.3,82.11V80.86a5.12,5.12,0,0,1-1.19.32c-.39.06-.79.1-1.19.13a3.29,3.29,0,0,0-1.65.48,1.41,1.41,0,0,0-.6,1.21,1.31,1.31,0,0,0,.54,1.08,2,2,0,0,0,1.18.35,3.88,3.88,0,0,0,1.41-.25,2.37,2.37,0,0,0,1.07-.76,2.06,2.06,0,0,0,.43-1.31Zm-2.83-1.54,1.28-.17.62-.09a3.24,3.24,0,0,0,.59-.17.57.57,0,0,0,.29-.37,1.85,1.85,0,0,0,.05-.46,1.48,1.48,0,0,0-.46-1.16,2.19,2.19,0,0,0-1.52-.46,2.81,2.81,0,0,0-1.58.38,1.91,1.91,0,0,0-.74,1.42h-.94a2.59,2.59,0,0,1,1-2,3.85,3.85,0,0,1,2.23-.61,3.4,3.4,0,0,1,2,.55,2.26,2.26,0,0,1,.84,1.93v4.33c0,.36.06.59.19.69s.4.07.78-.07V85l-.31.09a1.51,1.51,0,0,1-.41.06,1.87,1.87,0,0,1-.42,0,.75.75,0,0,1-.59-.42,1.89,1.89,0,0,1-.15-.77,3.86,3.86,0,0,1-1.33,1,4.24,4.24,0,0,1-1.63.34A3.33,3.33,0,0,1,134,85a2.11,2.11,0,0,1-1.35-2c0-1.35.92-2.15,2.78-2.4Z"/>
  <path d="M144.41,84.34v.75l-.44.11a3.74,3.74,0,0,1-.62.08,1.45,1.45,0,0,1-1-.35,1.72,1.72,0,0,1-.36-1.24V77.87h-1.13V77.1h1.13V74.88h.92V77.1h1.49v.77h-1.49v5.45a1.82,1.82,0,0,0,.11.86c.09.18.32.27.69.26a3.22,3.22,0,0,0,.75-.1Z"/>
  <path d="M151.12,82.11V80.86a5.26,5.26,0,0,1-1.19.32c-.4.06-.8.1-1.2.13a3.29,3.29,0,0,0-1.64.48,1.36,1.36,0,0,0-.6,1.21,1.3,1.3,0,0,0,.53,1.08,2.08,2.08,0,0,0,1.19.35,3.82,3.82,0,0,0,1.4-.25,2.4,2.4,0,0,0,1.08-.76,2.12,2.12,0,0,0,.43-1.31Zm-2.83-1.54,1.27-.17.62-.09a3.63,3.63,0,0,0,.6-.17.53.53,0,0,0,.28-.37,1.88,1.88,0,0,0,.06-.46,1.51,1.51,0,0,0-.46-1.16,2.2,2.2,0,0,0-1.53-.46,2.77,2.77,0,0,0-1.57.38,1.88,1.88,0,0,0-.75,1.42h-.94a2.62,2.62,0,0,1,1-2,3.89,3.89,0,0,1,2.24-.61,3.42,3.42,0,0,1,2,.55,2.26,2.26,0,0,1,.84,1.93v4.33c0,.36.05.59.19.69s.39.07.78-.07V85l-.32.09a1.4,1.4,0,0,1-.41.06,1.84,1.84,0,0,1-.41,0,.77.77,0,0,1-.6-.42,2.07,2.07,0,0,1-.14-.77,3.9,3.9,0,0,1-1.34,1,4.21,4.21,0,0,1-1.63.34,3.33,3.33,0,0,1-1.31-.26,2.11,2.11,0,0,1-1.35-2q0-2,2.79-2.4Z"/>
  <polygon points="155.49 85.06 154.57 85.06 154.57 73.99 155.49 73.99 155.49 85.06 155.49 85.06"/>
  <path d="M161.29,76.24l-2.12-2.14h1.19l1.71,2.14Zm1.78,5.88V80.88a5.67,5.67,0,0,1-1.19.32,11.69,11.69,0,0,1-1.19.12,3.29,3.29,0,0,0-1.65.49,1.41,1.41,0,0,0-.6,1.21,1.27,1.27,0,0,0,.54,1.07,1.9,1.9,0,0,0,1.19.35,3.85,3.85,0,0,0,1.4-.24,2.37,2.37,0,0,0,1.07-.76,2.07,2.07,0,0,0,.43-1.32Zm-2.83-1.53,1.28-.17.62-.09a3.24,3.24,0,0,0,.59-.17.55.55,0,0,0,.29-.37,1.51,1.51,0,0,0,0-.46,1.45,1.45,0,0,0-.46-1.16,2.17,2.17,0,0,0-1.52-.46,2.81,2.81,0,0,0-1.58.38,1.91,1.91,0,0,0-.74,1.42h-.94a2.59,2.59,0,0,1,1-2,3.8,3.8,0,0,1,2.23-.61,3.4,3.4,0,0,1,2.05.55,2.24,2.24,0,0,1,.84,1.93v4.33c0,.36.06.59.19.68s.4.08.78-.06V85l-.31.09a1.51,1.51,0,0,1-.41.06,1.87,1.87,0,0,1-.42,0,.75.75,0,0,1-.59-.42,1.74,1.74,0,0,1-.14-.77,4.13,4.13,0,0,1-1.34,1,4.24,4.24,0,0,1-1.63.34,3.33,3.33,0,0,1-1.31-.26,2.22,2.22,0,0,1-1-.76,2.16,2.16,0,0,1-.38-1.28c0-1.34.92-2.14,2.78-2.39Z"/>
</svg>