<?xml version="1.0" encoding="utf-8"?>
<!-- Generator: Adobe Illustrator 23.0.4, SVG Export Plug-In . SVG Version: 6.00 Build 0)  -->
<svg version="1.1" id="Brand" xmlns="http://www.w3.org/2000/svg" xmlns:xlink="http://www.w3.org/1999/xlink" x="0px" y="0px"
	 viewBox="0 0 1715.5 753" style="enable-background:new 0 0 1715.5 753;" xml:space="preserve">
<style type="text/css">
	.st0{display:none;fill:#FFFFFF;stroke:#000000;stroke-miterlimit:10;}
	.st1{display:none;fill:none;}
	.st2{fill:#FFFFFF;}
</style>
<rect id="Clear_Zone" x="0.5" y="0.5" class="st0" width="1715" height="753"/>
<rect id="Minimum_clear_zone" x="100.5" y="100.5" class="st1" width="1515" height="553"/>
<g id="Symbol">
	<g>
		<path class="st2" d="M499.76,503.92c-70.09,67.81-182.27,65.96-250.09-4.12s-65.96-182.27,4.12-250.09
			c70.09-67.81,182.27-65.96,250.09,4.12S569.85,436.1,499.76,503.92z M266.22,262.54c-63.01,60.97-64.67,161.83-3.71,224.84
			s161.83,64.67,224.84,3.71c63.01-60.97,64.67-161.83,3.71-224.84C430.09,203.24,329.23,201.58,266.22,262.54z"/>
	</g>
	<g>
		<path class="st2" d="M305.97,445.32c-9.1-9.41-15.93-20.18-20.54-31.64l-21.51-8.64c4.77,19.22,14.48,37.47,29.21,52.7
			c14.77,15.27,32.75,25.58,51.85,30.97l-9.05-22.27C325.02,461.48,314.81,454.46,305.97,445.32z"/>
		<path class="st2" d="M458.37,286.58l-175.79,61.59c4.68-15.53,13.23-30.11,25.69-42.17c28.28-27.37,68.87-34.35,103.46-21.29
			l23.64-8.44c-43.91-25.57-101.25-20.14-139.52,16.89c-17.95,17.37-29.06,39.17-33.34,62.04l-18.26,6.4
			c-3.49,1.22-5.86,4.47-5.97,8.16c-0.11,3.7,2.07,7.08,5.48,8.5l91.85,38.37l35.32,93.07c1.31,3.46,4.62,5.75,8.32,5.76
			c2.38,0.01,4.6-0.93,6.24-2.51c0.91-0.88,1.64-1.96,2.11-3.19l7-18.05c22.99-3.52,45.15-13.9,63.1-31.27
			c38.35-37.1,45.62-94.38,21.34-139.15l-9.15,23.41c12.02,35.05,3.73,75.49-24.61,102.91c-12.46,12.06-27.32,20.12-42.99,24.29
			l67.36-173.67c1.26-3.25,0.51-6.93-1.91-9.44C465.32,286.3,461.66,285.43,458.37,286.58z M381.89,475.12l-2.52,6.49l-2.42-6.38
			l-23.92-63.02l90.21-90.62L381.89,475.12z M342.41,400.13l-63.99-26.73l-6.29-2.63l6.57-2.3l155.47-56.26L342.41,400.13z"/>
	</g>
</g>
<g id="Logotype">
	<path class="st2" d="M610.35,439.15V302.26h13.84v61.34h15.33l43.01-61.34h16.83l-47.12,68.25l47.12,68.63h-16.83l-43.01-61.71
		h-15.15v61.71H610.35z"/>
	<path class="st2" d="M715.25,323.77v-10.1c0-3.12,1.5-4.68,4.49-4.68h9.35c2.87,0,4.3,1.56,4.3,4.68v10.1c0,2.87-1.43,4.3-4.3,4.3
		h-9.35C716.75,328.07,715.25,326.64,715.25,323.77z M717.12,439.15v-99.3h13.84v99.3H717.12z"/>
	<path class="st2" d="M753.96,439.15v-99.3h9.72l4.11,11.59c0.37-0.12,1.75-0.9,4.11-2.34c2.37-1.43,3.83-2.27,4.39-2.52
		c0.56-0.25,1.9-0.96,4.02-2.15c2.12-1.18,3.61-1.9,4.49-2.15c0.87-0.25,2.3-0.75,4.3-1.5c1.99-0.75,3.61-1.25,4.86-1.5
		c3.99-0.75,7.48-1.12,10.47-1.12c9.47,0,16.95,3.12,22.44,9.35c5.48,6.24,8.23,13.72,8.23,22.44v69.19h-13.84v-69.19
		c0-5.86-1.56-10.31-4.67-13.37c-3.12-3.05-7.11-4.58-11.97-4.58c-4.86,0-9.42,0.5-13.65,1.5c-4.24,1-7.64,2.03-10.19,3.09
		c-2.56,1.06-6.89,3.09-13,6.08v76.48H753.96z"/>
	<path class="st2" d="M853.44,417.64c0-3.49,0.94-6.76,2.81-9.82c1.87-3.05,4.61-4.96,8.23-5.7c-7.23-4.61-10.85-13.21-10.85-25.81
		c0-12.59,2.83-21.88,8.51-27.86c5.67-5.98,13.62-8.98,23.84-8.98h58.34v10.47l-15.15,3.37c0.12,0.25,0.56,1.03,1.31,2.34
		c0.75,1.31,1.31,2.37,1.68,3.18c0.37,0.81,0.81,2.03,1.31,3.65c1,2.99,1.5,6.67,1.5,11.03c0,4.37-0.41,8.35-1.21,11.97
		c-0.81,3.62-2.21,7.51-4.21,11.69c-2,4.18-5.17,7.57-9.54,10.19c-4.37,2.62-9.66,3.93-15.89,3.93h-29.17
		c-5.11,0-7.67,1.87-7.67,5.61c0,4.24,2.55,6.36,7.67,6.36h39.83c7.6,0,13.53,2.34,17.77,7.01c4.24,4.68,6.36,10.94,6.36,18.79
		v11.78c0,6.73-1.56,12.84-4.67,18.33c-1.87,3.24-4.8,5.8-8.79,7.67c-3.99,1.87-8.85,2.8-14.59,2.8H882.8
		c-9.1,0-16.36-2.43-21.79-7.29c-5.42-4.86-8.13-12.03-8.13-21.51v-15.89l7.48-12.15C855.75,429.55,853.44,424.5,853.44,417.64z
		 M875.13,437.09c-3.37,0-6.17-0.5-8.42-1.5v25.24c0,9.97,5.36,14.96,16.08,14.96h28.05c9.47,0,14.21-4.99,14.21-14.96v-10.85
		c0-4.74-0.84-8.07-2.52-10c-1.68-1.93-5.08-2.9-10.19-2.9H875.13z M867.47,374.82c0,5.24,0.81,9.6,2.43,13.09
		c2.99,6.36,7.92,9.54,14.77,9.54H903c6.73,0,11.44-2.27,14.12-6.83c2.68-4.55,4.02-9.38,4.02-14.49c0-7.48-1.34-13.15-4.02-17.02
		c-2.68-3.86-7.45-5.8-14.31-5.8h-16.83C873.64,353.32,867.47,360.49,867.47,374.82z"/>
	<path class="st2" d="M969.01,307.31c3.11-1.87,6.2-3.18,9.26-3.93c3.05-0.75,5.48-1.12,7.29-1.12c1.81,0,10.81,0.22,27.02,0.65
		c16.21,0.44,28.3,1.22,36.28,2.34v21.69h-54.04c-4.61,0-7.48,1.12-8.6,3.37c-0.75,1.75-1.12,4.11-1.12,7.11v21.32l55.35,1.87v21.69
		l-55.35,1.68v21.32c0,4.74,1.31,7.61,3.93,8.6c1.87,0.75,4.42,1.12,7.67,1.12h52.17v21.5c-6.24,0.87-21.63,1.75-46.19,2.62
		l-12.15,0.56c-1,0-2.15,0-3.46,0c-1.31,0-3.02-0.09-5.14-0.28c-2.12-0.19-4.67-0.84-7.67-1.96c-2.99-1.12-5.61-2.62-7.85-4.49
		c-4.99-4.49-7.48-11.41-7.48-20.76v-81.53C958.91,319.35,962.27,311.55,969.01,307.31z"/>
	<path class="st2" d="M1061.19,389.41c0-9.97,0.78-18.36,2.34-25.15c1.56-6.79,3.86-11.97,6.92-15.52
		c3.05-3.55,6.45-6.08,10.19-7.57c3.74-1.5,8.16-2.24,13.28-2.24c18.33,0,33.53,1.93,45.63,5.8v16.27
		c-11.85-0.75-21.29-1.12-28.33-1.12c-7.04,0-11.29,0.13-12.72,0.37c-1.43,0.25-3.02,0.87-4.77,1.87c-1.75,1-2.99,2.56-3.74,4.67
		c-1.75,5.11-2.62,12.38-2.62,21.79c0,9.41,0.59,16.18,1.78,20.29c1.18,4.11,2.93,6.83,5.24,8.13c2.3,1.31,5.95,1.96,10.94,1.96
		c10.1,0,20.26-0.44,30.48-1.31l5.05-0.37v16.46c-5.74,2.99-11.35,4.74-16.83,5.24c-8.11,0.75-15.15,1.12-21.13,1.12h-1.12
		c-4.74,0-7.36,0-7.85,0c-9.85,0-17.58-3.3-23.19-9.91C1064.37,422.82,1061.19,409.23,1061.19,389.41z"/>
	<path class="st2" d="M1155.07,403.81V292.73h26.18v106.96c0,6.61,0.68,11.22,2.06,13.84c1.37,2.62,3.55,4.49,6.54,5.61
		c7.48,2.62,11.66,3.93,12.53,3.93v16.08h-21.69c-8.48,0-14.87-2.71-19.17-8.13C1157.22,425.59,1155.07,416.52,1155.07,403.81z"/>
	<path class="st2" d="M1212.1,325.08v-16.46c0-3.24,1.5-4.86,4.49-4.86h19.63c2.74,0,4.11,1.62,4.11,4.86v16.46
		c0,2.87-1.37,4.3-4.11,4.3h-19.63c-1.37,0-2.46-0.37-3.27-1.12C1212.5,327.51,1212.1,326.45,1212.1,325.08z M1213.03,439.15v-99.3
		h26.18v99.3H1213.03z"/>
	<path class="st2" d="M1281.29,340.23c4.36-0.75,9.35-1.12,14.96-1.12c5.61,0,9.97,0.09,13.09,0.28c3.11,0.19,6.26,0.56,9.44,1.12
		c3.18,0.56,5.76,1.37,7.76,2.43c1.99,1.06,3.93,2.49,5.8,4.3c1.87,1.81,3.3,3.96,4.3,6.45c2.24,5.61,3.37,12.06,3.37,19.35
		s-1.06,12.81-3.18,16.55c-4.11,7.11-12.28,10.66-24.5,10.66h-31.6c0,4.37,0.37,7.85,1.12,10.47c0.75,2.62,2.12,4.52,4.11,5.7
		c1.99,1.19,4.08,1.93,6.26,2.24c2.18,0.31,8.13,0.47,17.86,0.47c9.72,0,19.07-0.68,28.05-2.06v17.77
		c-5.61,2.12-11.25,3.43-16.92,3.93c-5.67,0.5-9.57,0.81-11.69,0.93c-2.12,0.12-4.74,0.19-7.85,0.19c-4.11,0.12-8.92,0.19-14.4,0.19
		c-12.34,0-20.88-3.86-25.62-11.59c-4.74-7.73-7.11-20.29-7.11-37.68s1.9-29.73,5.7-37.03
		C1264.05,346.49,1271.06,341.97,1281.29,340.23z M1313.82,373.88c0-6.23-0.84-10.25-2.52-12.06c-1.68-1.81-5.08-2.71-10.19-2.71
		c-5.11,0-8.63,0.16-10.57,0.47c-1.93,0.31-3.8,1.19-5.61,2.62c-1.81,1.44-2.96,3.59-3.46,6.45c-0.5,2.87-0.75,5.58-0.75,8.13
		c0,2.56,0,4.08,0,4.58h24.87C1311.08,381.37,1313.82,378.87,1313.82,373.88z"/>
	<path class="st2" d="M1411.81,338.17c19.82,0,29.73,11.59,29.73,34.78v66.2h-26.18v-66.57c0-8.98-3.68-13.46-11.03-13.46
		c-4.99,0-9.23,0.66-12.72,1.96c-3.49,1.31-7.23,3.52-11.22,6.64v71.43h-26.18v-99.3h20.94l5.24,10.66
		c9.1-6.61,16.33-10.41,21.69-11.41C1404.95,338.48,1408.19,338.17,1411.81,338.17z"/>
	<path class="st2" d="M1451.27,359.67v-14.59l16.08-5.42l4.3-27.68h21.88v27.68h22.25v20.01h-22.25v39.83
		c0,6.73,0.68,11.41,2.06,14.03c1.37,2.62,3.49,4.49,6.36,5.61c7.48,2.62,11.66,3.93,12.53,3.93v16.08h-22.81
		c-16.21,0-24.31-11.84-24.31-35.53v-43.95H1451.27z"/>
</g>
</svg>
