<svg width="196" height="138" viewBox="0 0 196 138" fill="none" xmlns="http://www.w3.org/2000/svg">
<path d="M35.8015 106.622C36.63 106.768 37.7373 106.866 38.6015 106.866C41.8394 106.866 45.9808 105.909 45.9808 101.703C45.9808 98.1859 43.419 97.4408 39.3537 97.4408H35.8015V106.622ZM32.5992 104.299C32.5992 101.646 32.4872 98.9546 32.3282 96.2963H40.9752C43.3399 96.2963 49.4988 96.3997 49.4988 101.554C49.4988 106.995 42.7862 108.004 38.9986 108.004C37.8176 108.004 36.8298 107.98 35.8015 107.916V109.619C35.8015 112.269 35.9619 114.962 36.1197 117.615H32.3282C32.4872 114.962 32.5992 112.269 32.5992 109.619V104.299Z" fill="white"/>
<path d="M63.9207 108.833C62.725 108.865 61.4955 108.889 60.2975 108.889C59.1742 108.889 57.9456 108.833 56.8107 108.833L60.3396 101.959L63.9207 108.833ZM71.4195 117.542C69.6627 114.588 64.7099 104.514 61.4666 98.0978L61.4229 98.1214V98.0716H60.7631L60.751 98.0978C57.3827 104.63 53.9439 111.072 50.4075 117.547L50.3665 117.619H52.9235L52.9393 117.585C53.5008 115.851 54.7529 113.04 56.1281 110.204C57.4791 110.179 58.79 110.148 60.1357 110.148C61.5795 110.148 63.0234 110.179 64.4359 110.204C65.6197 112.662 67.1965 115.691 67.8226 117.585L67.8386 117.619H71.4628L71.4195 117.542Z" fill="white"/>
<path d="M79.9701 105.649C79.9701 103.668 80.0753 101.684 80.1713 99.6846C80.8671 99.632 81.8403 99.5483 83.3328 99.5483C85.5778 99.5523 88.4067 100.262 88.4106 103.127C88.4029 106.367 84.8533 107.31 82.1387 107.31C81.3022 107.31 80.5645 107.284 79.9701 107.178V105.649ZM93.6805 117.531C91.7919 115.76 86.3908 109.949 84.6968 108.167C87.227 107.866 91.408 106.422 91.4159 102.847C91.4159 99.5129 88.2304 98.4326 84.4929 98.4286H76.9019V98.4759C77.0335 100.859 77.1701 103.266 77.1701 105.649V110.402C77.1701 112.778 77.0335 115.189 76.9019 117.563V117.612H80.2476L80.2437 117.563C80.1147 115.189 79.9701 112.778 79.9701 110.402V108.43H81.1681C84.001 110.837 88.3911 115.914 89.7102 117.596L89.7285 117.612H93.7687L93.6805 117.531Z" fill="white"/>
<path d="M134.671 115.922L134.686 115.85L134.61 115.862C132.544 116.193 128.676 116.22 125.743 116.22C125.701 115.515 125.679 114.173 125.679 112.121C125.679 109.522 125.679 108.805 125.701 108.155C127.321 108.155 131.433 108.215 133.689 108.403L133.754 108.411L133.739 108.346V106.677L133.754 106.618H133.689C131.746 106.76 129.577 106.897 125.709 106.901C125.701 106.185 125.679 104.701 125.679 103.295C125.679 101.959 125.767 101 125.801 99.8274C130.068 99.8313 131.685 100.027 134.45 100.186L134.522 100.191L134.497 100.125V98.493L134.514 98.4332H122.6V98.4851C122.732 100.832 122.864 103.243 122.864 105.622V110.375C122.864 112.753 122.732 115.16 122.6 117.566V117.619H134.682L134.671 117.558" fill="white"/>
<path d="M145.786 106.06C146.494 106.181 147.398 106.212 148.428 106.212C151.663 106.212 155.959 105.167 155.959 101.494C155.959 98.2454 152.529 97.4401 149.849 97.4401C148.031 97.4401 146.851 97.5319 146.019 97.5924C145.898 99.8513 145.786 102.075 145.786 104.298V106.06ZM142.66 104.298C142.66 101.645 142.506 98.9544 142.35 96.2972H151.228C155.687 96.2972 159.323 97.5045 159.323 101.178C159.323 105.167 154.34 106.769 151.349 107.079C153.277 108.965 159.868 115.607 162.152 117.616H157.499C155.919 115.73 150.671 110.045 147.287 107.358H145.786V109.618C145.786 112.268 145.947 114.961 146.107 117.616H142.35C142.506 114.961 142.66 112.268 142.66 109.618V104.298Z" fill="white"/>
<path d="M117.274 117.536C113.548 114.006 109.89 110.451 106.361 107.111C108.755 104.813 113.88 100.748 116.904 98.5167L117.026 98.433H113.913L113.897 98.4485C110.863 101.333 106.422 105.266 103.357 107.53L103.307 107.574L103.352 107.609C104.913 108.957 110.332 114.44 113.401 117.6L113.417 117.616H117.359L117.274 117.536ZM102.704 98.4815V98.433H99.3633L99.3671 98.4815C99.504 100.863 99.6302 103.27 99.6302 105.65V110.406C99.6302 112.778 99.504 115.189 99.3671 117.568L99.3633 117.616H102.704V117.568C102.574 115.189 102.441 112.778 102.441 110.406V105.65C102.441 103.27 102.574 100.863 102.704 98.4815Z" fill="white"/>
<path d="M137.882 54.9846C134.701 57.5852 129.011 59.9843 121.684 61.6855C115.021 63.2519 106.991 64.217 98.3199 64.3834C98.3199 63.582 98.2857 62.9846 98.2857 62.6508C98.2857 60.084 97.6503 58.6854 97.381 55.9851C97.1824 54.119 96.9824 42.2211 96.8811 34.9884C109.299 35.0879 120.479 36.8898 128.444 39.6219C132.528 41.0205 135.774 42.6861 137.882 44.4199C140.025 46.1526 141.06 47.9179 141.06 49.6886C141.06 51.4841 140.025 53.2545 137.882 54.9846ZM93.4013 62.6508C93.4013 62.9846 93.3643 63.582 93.3329 64.3834C81.5187 64.1528 70.9082 62.419 63.2448 59.784C59.1585 58.388 55.9444 56.7156 53.8058 54.9846C51.6635 53.2545 50.6219 51.4841 50.6219 49.6886C50.6219 47.9179 51.6635 46.1526 53.8058 44.4199C56.986 41.8219 62.6751 39.3887 70.0033 37.7228C77.0327 36.0884 85.601 35.0879 94.8045 35.0199C94.7046 42.2211 94.506 54.1514 94.3046 55.9851C94.0364 58.6854 93.4013 60.084 93.4013 62.6508ZM146.082 42.9548C141.632 39.9898 134.637 37.6546 125.965 36.0203C117.567 34.3861 107.59 33.4537 96.8811 33.4234C96.8455 30.9876 96.8155 29.4226 96.8155 29.4226C96.8155 29.4226 97.8503 28.9248 97.9188 28.0921C97.9872 27.2907 97.1139 22.2893 96.6811 20.9902C96.2775 19.6556 96.1091 19.4567 95.8409 19.4567C95.5739 19.4567 95.441 19.6556 95.0056 20.9902C94.6045 22.2893 93.6998 27.2907 93.7694 28.0921C93.8378 28.9248 94.8729 29.4226 94.8729 29.4226C94.8729 29.4226 94.8729 30.9876 94.8045 33.4234C80.4154 33.4915 67.3611 35.156 57.6541 37.8904C52.6985 39.288 48.5506 40.9892 45.6046 42.9548C42.66 44.9177 40.8502 47.2213 40.8502 49.6886C40.8502 52.1872 42.66 54.4869 45.6046 56.4497C50.055 59.3874 57.0858 61.7184 65.7526 63.3843C73.7212 64.9175 83.1575 65.8186 93.2998 65.9849L95.5094 63.4195L95.8079 22.5564H95.8763L96.1776 63.4195L98.3881 65.9849C112.212 65.7836 124.663 64.1528 134.033 61.5179C139.02 60.1195 143.136 58.4181 146.082 56.4497C149.028 54.4869 150.837 52.1872 150.837 49.6886C150.837 47.2213 149.028 44.9177 146.082 42.9548Z" fill="white"/>
<path d="M95.4647 71.32L92.9211 74.247C92.9015 74.8024 92.8712 75.3574 92.8528 75.8906L95.4489 72.8985" fill="white"/>
<path d="M95.4452 73.6881L92.811 76.712C92.7912 77.2892 92.7714 77.8438 92.753 78.361L95.4373 75.2703" fill="white"/>
<path d="M95.4824 69.0498L93.0281 71.8706C93.0046 72.3839 92.9809 72.9029 92.9599 73.4171L95.4731 70.5244" fill="white"/>
<path d="M99.0265 81.597L95.841 77.9274L92.665 81.5852V81.673C92.665 82.0567 92.9676 82.299 93.5776 82.299H98.1069C98.7173 82.299 99.0265 82.0567 99.0265 81.673" fill="white"/>
<path d="M95.4375 76.0539L92.7257 79.1747C92.7071 79.7876 92.6873 80.3389 92.6808 80.8014L95.4256 77.649" fill="white"/>
<path d="M95.5174 64.3589L93.2526 66.9623C93.2291 67.4403 93.2081 67.9355 93.1844 68.4487L95.5015 65.7786" fill="white"/>
<path d="M95.4978 66.7267L93.1397 69.4374C93.1162 69.9315 93.0964 70.429 93.0687 70.9343L95.4845 68.1569" fill="white"/>
<path d="M98.5108 68.4601C98.4871 67.9466 98.4621 67.4514 98.4424 66.9776L96.1697 64.3584L96.1778 65.7751" fill="white"/>
<path d="M96.2421 75.2701L98.942 78.3738C98.9236 77.8589 98.9038 77.3014 98.8736 76.7288L96.2263 73.684" fill="white"/>
<path d="M96.1974 68.1489L98.6186 70.9475C98.5988 70.4405 98.579 69.9432 98.5555 69.4557L96.1855 66.7225" fill="white"/>
<path d="M96.2577 77.6398L99.0181 80.8132C99.0116 80.3496 98.9855 79.8046 98.9657 79.1865L96.2498 76.046" fill="white"/>
<path d="M96.2267 72.8904L98.8423 75.9078C98.8174 75.3661 98.7899 74.8146 98.7743 74.2577L96.2134 71.3166" fill="white"/>
<path d="M96.213 70.5205L98.7392 73.4253C98.7143 72.912 98.6868 72.396 98.6631 71.8788L96.2011 69.0422" fill="white"/>
</svg>
